<svg version="1.1" id="Layer_1" xmlns="http://www.w3.org/2000/svg" xmlns:xlink="http://www.w3.org/1999/xlink" x="0px" y="0px"
	 width="100%" viewBox="0 0 225 225" enable-background="new 0 0 225 225" xml:space="preserve">
<path fill="#38424A" opacity="1.000000" stroke="none" 
	d="
M101.000000,1.000000 
	C108.354256,1.000000 115.708504,1.000000 123.731003,1.364274 
	C126.218094,1.871164 128.053680,1.902368 129.853363,2.172692 
	C174.907959,8.940161 211.159073,41.675686 222.491669,85.851128 
	C223.779297,90.870430 224.836136,95.948944 226.000000,101.000000 
	C226.000000,109.020897 226.000000,117.041801 225.630875,125.700790 
	C220.182968,170.974670 188.667343,208.543701 145.448822,221.227127 
	C138.743179,223.195038 131.821671,224.427444 125.000000,226.000000 
	C117.312424,226.000000 109.624847,226.000000 101.299240,225.630951 
	C54.502907,218.320023 23.033216,193.157166 7.003852,149.230469 
	C4.275044,141.752472 2.965321,133.756607 1.000000,126.000000 
	C1.000000,117.979103 1.000000,109.958199 1.369062,101.299133 
	C2.151286,98.041779 2.553099,95.420731 2.979293,92.803658 
	C10.396953,47.254955 51.051662,7.912382 96.541122,2.209517 
	C98.054176,2.019830 99.514893,1.412599 101.000000,1.000000 
M31.100555,59.606041 
	C2.785266,102.917915 12.968163,159.257675 52.396854,190.784683 
	C68.483719,203.647659 87.238937,209.861282 107.051514,212.548569 
	C115.271416,213.663498 124.141205,211.689972 132.477203,209.967712 
	C183.920883,199.339157 217.022476,153.442856 211.105667,101.422882 
	C205.640610,53.374588 163.683624,15.290326 115.391556,15.070215 
	C79.829002,14.908125 51.926605,29.965933 31.100555,59.606041 
z"/>
<path fill="#FEFEFE" opacity="1.000000" stroke="none" 
	d="
M125.468658,226.000000 
	C131.821671,224.427444 138.743179,223.195038 145.448822,221.227127 
	C188.667343,208.543701 220.182968,170.974670 225.630875,126.169449 
	C226.000000,159.260635 226.000000,192.521255 226.000000,226.000000 
	C192.646088,226.000000 159.291702,226.000000 125.468658,226.000000 
z"/>
<path fill="#FEFEFE" opacity="1.000000" stroke="none" 
	d="
M226.000000,100.531342 
	C224.836136,95.948944 223.779297,90.870430 222.491669,85.851128 
	C211.159073,41.675686 174.907959,8.940161 129.853363,2.172692 
	C128.053680,1.902368 126.218094,1.871164 124.199615,1.364274 
	C157.926208,1.000000 191.852417,1.000000 226.000000,1.000000 
	C226.000000,34.020565 226.000000,67.041626 226.000000,100.531342 
z"/>
<path fill="#FEFEFE" opacity="1.000000" stroke="none" 
	d="
M100.531342,1.000000 
	C99.514893,1.412599 98.054176,2.019830 96.541122,2.209517 
	C51.051662,7.912382 10.396953,47.254955 2.979293,92.803658 
	C2.553099,95.420731 2.151286,98.041779 1.369062,100.830490 
	C1.000000,67.739731 1.000000,34.479462 1.000000,1.000000 
	C34.020573,1.000000 67.041626,1.000000 100.531342,1.000000 
z"/>
<path fill="#FEFEFE" opacity="1.000000" stroke="none" 
	d="
M1.000000,126.468658 
	C2.965321,133.756607 4.275044,141.752472 7.003852,149.230469 
	C23.033216,193.157166 54.502907,218.320023 100.830605,225.630951 
	C67.739731,226.000000 34.479462,226.000000 1.000000,226.000000 
	C1.000000,192.979431 1.000000,159.958374 1.000000,126.468658 
z"/>
<path fill="#F8F8F9" opacity="1.000000" stroke="none" 
	d="
M31.302582,59.307350 
	C51.926605,29.965933 79.829002,14.908125 115.391556,15.070215 
	C163.683624,15.290326 205.640610,53.374588 211.105667,101.422882 
	C217.022476,153.442856 183.920883,199.339157 132.477203,209.967712 
	C124.141205,211.689972 115.271416,213.663498 107.051514,212.548569 
	C87.238937,209.861282 68.483719,203.647659 52.396854,190.784683 
	C12.968163,159.257675 2.785266,102.917915 31.302582,59.307350 
M152.448166,30.906942 
	C136.831024,23.791677 120.601448,20.948547 103.400230,22.722496 
	C49.375679,28.294004 11.827830,81.789848 24.578712,134.596161 
	C35.190979,178.545670 77.330688,209.460922 124.477127,204.244720 
	C170.778427,199.121979 208.405380,155.156693 204.758499,108.835655 
	C201.972687,73.451271 184.575073,47.609394 152.448166,30.906942 
z"/>
<path fill="#38424A" opacity="1.000000" stroke="none" 
	d="
M152.799347,31.039425 
	C184.575073,47.609394 201.972687,73.451271 204.758499,108.835655 
	C208.405380,155.156693 170.778427,199.121979 124.477127,204.244720 
	C77.330688,209.460922 35.190979,178.545670 24.578712,134.596161 
	C11.827830,81.789848 49.375679,28.294004 103.400230,22.722496 
	C120.601448,20.948547 136.831024,23.791677 152.799347,31.039425 
M119.349434,97.008308 
	C119.389946,89.028961 119.430450,81.049606 119.929588,72.909752 
	C120.290581,72.584885 120.651573,72.260010 121.808846,71.904427 
	C124.628563,72.907967 127.649803,73.550697 130.226303,74.989708 
	C135.689285,78.040871 137.514648,83.370964 137.986282,89.253181 
	C138.186249,91.747108 138.371643,93.936905 141.768188,93.797646 
	C148.796417,93.509491 155.829773,93.346413 162.867813,93.131691 
	C163.603027,83.257698 161.954987,74.947754 157.072357,67.398506 
	C148.284683,53.811489 134.517273,49.075016 119.110519,46.749798 
	C119.110519,42.449230 119.110519,38.531715 119.110519,34.657608 
	C115.055153,34.657608 111.523193,34.657608 107.527084,34.657608 
	C107.527084,38.973137 107.527084,42.890896 107.527084,46.859245 
	C97.186211,48.001122 87.892189,50.758156 79.682755,56.630043 
	C60.710621,70.200050 58.589081,101.622238 82.803802,113.833191 
	C90.082939,117.503899 98.211044,119.491074 106.086845,122.738312 
	C106.570908,123.185333 107.054962,123.632355 107.664986,124.998390 
	C107.622864,134.638443 107.580742,144.278488 107.094666,154.051651 
	C106.725388,154.333710 106.356110,154.615784 105.250175,154.850327 
	C92.501549,151.533737 85.731689,143.460098 85.877235,129.946228 
	C77.483772,129.946228 69.392593,129.946228 61.323921,129.946228 
	C59.774239,149.009583 68.380516,165.331375 84.884529,173.294250 
	C90.616402,176.059769 97.084579,177.437943 103.342613,178.915451 
	C106.453690,179.649963 108.009590,180.542038 107.767426,184.019119 
	C107.544983,187.213074 107.974449,190.452438 108.135788,194.103699 
	C112.314957,193.437607 115.660316,192.904404 119.205795,192.339310 
	C119.205795,188.432861 119.205795,184.789062 119.205795,182.558838 
	C129.321716,178.679596 139.409668,176.196686 148.025696,171.183838 
	C161.109756,163.571503 167.121353,151.080505 165.876953,135.766739 
	C164.747482,121.867226 157.166016,112.172256 144.550735,106.829697 
	C136.956314,103.613457 128.867615,101.564308 120.684052,98.656982 
	C120.304832,98.409729 119.925621,98.162476 119.349434,97.008308 
z"/>
<path fill="#FDFDFD" opacity="1.000000" stroke="none" 
	d="
M107.538620,153.918533 
	C107.580742,144.278488 107.622864,134.638443 107.702652,124.255844 
	C107.143623,123.092026 106.546928,122.670761 105.950226,122.249489 
	C98.211044,119.491074 90.082939,117.503899 82.803802,113.833191 
	C58.589081,101.622238 60.710621,70.200050 79.682755,56.630043 
	C87.892189,50.758156 97.186211,48.001122 107.527084,46.859245 
	C107.527084,42.890896 107.527084,38.973137 107.527084,34.657608 
	C111.523193,34.657608 115.055153,34.657608 119.110519,34.657608 
	C119.110519,38.531715 119.110519,42.449230 119.110519,46.749798 
	C134.517273,49.075016 148.284683,53.811489 157.072357,67.398506 
	C161.954987,74.947754 163.603027,83.257698 162.867813,93.131691 
	C155.829773,93.346413 148.796417,93.509491 141.768188,93.797646 
	C138.371643,93.936905 138.186249,91.747108 137.986282,89.253181 
	C137.514648,83.370964 135.689285,78.040871 130.226303,74.989708 
	C127.649803,73.550697 124.628563,72.907967 121.204544,71.809578 
	C120.223816,72.166573 119.847389,72.618416 119.470963,73.070259 
	C119.430450,81.049606 119.389946,89.028961 119.393799,97.748512 
	C119.959114,98.656036 120.480072,98.823364 121.001030,98.990685 
	C128.867615,101.564308 136.956314,103.613457 144.550735,106.829697 
	C157.166016,112.172256 164.747482,121.867226 165.876953,135.766739 
	C167.121353,151.080505 161.109756,163.571503 148.025696,171.183838 
	C139.409668,176.196686 129.321716,178.679596 119.205795,182.558838 
	C119.205795,184.789062 119.205795,188.432861 119.205795,192.339310 
	C115.660316,192.904404 112.314957,193.437607 108.135788,194.103699 
	C107.974449,190.452438 107.544983,187.213074 107.767426,184.019119 
	C108.009590,180.542038 106.453690,179.649963 103.342613,178.915451 
	C97.084579,177.437943 90.616402,176.059769 84.884529,173.294250 
	C68.380516,165.331375 59.774239,149.009583 61.323921,129.946228 
	C69.392593,129.946228 77.483772,129.946228 85.877235,129.946228 
	C85.731689,143.460098 92.501549,151.533737 105.919167,154.972351 
	C106.904976,154.702438 107.221794,154.310486 107.538620,153.918533 
M102.056145,94.711884 
	C102.704002,94.809380 103.351860,94.906868 104.714081,95.273232 
	C106.574631,96.109856 107.781052,96.213974 107.706505,93.471344 
	C107.521866,86.677856 107.542130,79.878815 107.692184,72.556503 
	C106.788864,72.351997 105.885551,72.147491 104.208511,71.906570 
	C100.250366,74.025383 95.273140,75.270248 92.548721,78.447083 
	C87.076096,84.828476 91.401306,91.824066 102.056145,94.711884 
M119.361320,128.002518 
	C119.361320,137.177139 119.361320,146.351776 119.361320,156.068726 
	C121.545471,155.658615 123.273643,155.334122 125.697411,155.100006 
	C126.325935,154.849548 126.954460,154.599091 128.285919,154.243393 
	C137.311798,151.386673 140.311737,147.837631 140.323715,139.279831 
	C140.334122,131.853409 134.248581,130.186096 128.923340,128.067368 
	C126.400887,127.063766 123.672173,126.578613 120.625053,125.522804 
	C120.254921,126.044739 119.884789,126.566673 119.361320,128.002518 
z"/>
<path fill="#586067" opacity="1.000000" stroke="none" 
	d="
M106.018539,122.493896 
	C106.546928,122.670761 107.143623,123.092026 107.639679,123.796333 
	C107.054962,123.632355 106.570908,123.185333 106.018539,122.493896 
z"/>
<path fill="#545D64" opacity="1.000000" stroke="none" 
	d="
M119.700272,72.990005 
	C119.847389,72.618416 120.223816,72.166573 120.806412,71.824936 
	C120.651573,72.260010 120.290581,72.584885 119.700272,72.990005 
z"/>
<path fill="#545D64" opacity="1.000000" stroke="none" 
	d="
M120.842545,98.823837 
	C120.480072,98.823364 119.959114,98.656036 119.492279,98.201973 
	C119.925621,98.162476 120.304832,98.409729 120.842545,98.823837 
z"/>
<path fill="#586067" opacity="1.000000" stroke="none" 
	d="
M107.316635,153.985092 
	C107.221794,154.310486 106.904976,154.702438 106.287491,154.996124 
	C106.356110,154.615784 106.725388,154.333710 107.316635,153.985092 
z"/>
<path fill="#38424A" opacity="1.000000" stroke="none" 
	d="
M121.036896,125.858566 
	C123.672173,126.578613 126.400887,127.063766 128.923340,128.067368 
	C134.248581,130.186096 140.334122,131.853409 140.323715,139.279831 
	C140.311737,147.837631 137.311798,151.386673 127.593307,154.260132 
	C126.267738,154.521133 125.634781,154.765381 125.001823,155.009628 
	C123.273643,155.334122 121.545471,155.658615 119.361320,156.068726 
	C119.361320,146.351776 119.361320,137.177139 119.666748,127.449844 
	C120.327080,126.550972 120.681984,126.204765 121.036896,125.858566 
z"/>
<path fill="#38424A" opacity="1.000000" stroke="none" 
	d="
M107.480072,73.082001 
	C107.542130,79.878815 107.521866,86.677856 107.706505,93.471344 
	C107.781052,96.213974 106.574631,96.109856 104.088867,94.955116 
	C102.847382,94.494919 102.231117,94.352829 101.614845,94.210747 
	C91.401306,91.824066 87.076096,84.828476 92.548721,78.447083 
	C95.273140,75.270248 100.250366,74.025383 104.812210,72.097504 
	C106.103958,72.552948 106.792015,72.817474 107.480072,73.082001 
z"/>
<path fill="#565E65" opacity="1.000000" stroke="none" 
	d="
M107.586128,72.819252 
	C106.792015,72.817474 106.103958,72.552948 105.199066,72.115707 
	C105.885551,72.147491 106.788864,72.351997 107.586128,72.819252 
z"/>
<path fill="#586066" opacity="1.000000" stroke="none" 
	d="
M120.830978,125.690681 
	C120.681984,126.204765 120.327080,126.550972 119.743416,126.992889 
	C119.884789,126.566673 120.254921,126.044739 120.830978,125.690681 
z"/>
<path fill="#565E65" opacity="1.000000" stroke="none" 
	d="
M101.835495,94.461319 
	C102.231117,94.352829 102.847382,94.494919 103.731689,94.820679 
	C103.351860,94.906868 102.704002,94.809380 101.835495,94.461319 
z"/>
<path fill="#586066" opacity="1.000000" stroke="none" 
	d="
M125.349617,155.054810 
	C125.634781,154.765381 126.267738,154.521133 127.241852,154.312775 
	C126.954460,154.599091 126.325935,154.849548 125.349617,155.054810 
z"/>
</svg>