<svg width="49" height="43" viewBox="0 0 49 43" fill="none" xmlns="http://www.w3.org/2000/svg">
<path fill-rule="evenodd" clip-rule="evenodd" d="M24.1638 42.9961C23.4758 42.9961 22.8125 42.7469 22.2956 42.2941C20.3432 40.587 18.461 38.9827 16.8003 37.5676L16.7918 37.5602C11.923 33.4111 7.71859 29.828 4.79324 26.2983C1.52314 22.3524 0 18.611 0 14.5239C0 10.5529 1.36165 6.88936 3.83385 4.20773C6.33555 1.49438 9.76825 0 13.5007 0C16.2904 0 18.8452 0.881957 21.0939 2.62117C22.2288 3.49907 23.2575 4.57349 24.1638 5.82674C25.0705 4.57349 26.0988 3.49907 27.2341 2.62117C29.4828 0.881957 32.0376 0 34.8273 0C38.5594 0 41.9925 1.49438 44.4942 4.20773C46.9664 6.88936 48.3276 10.5529 48.3276 14.5239C48.3276 18.611 46.8049 22.3524 43.5348 26.2979C40.6094 29.828 36.4054 33.4107 31.5373 37.5595C29.8737 38.9768 27.9885 40.5836 26.0317 42.2948C25.5151 42.7469 24.8515 42.9961 24.1638 42.9961ZM13.5007 2.83096C10.5684 2.83096 7.87455 4.00125 5.91486 6.1265C3.92603 8.28382 2.83059 11.266 2.83059 14.5239C2.83059 17.9614 4.10817 21.0357 6.97269 24.492C9.74133 27.8329 13.8595 31.3422 18.6276 35.4058L18.6365 35.4132C20.3034 36.8338 22.1931 38.4444 24.1598 40.164C26.1383 38.441 28.0309 36.8279 29.7011 35.4051C34.4689 31.3415 38.5867 27.8329 41.3553 24.492C44.2195 21.0357 45.497 17.9614 45.497 14.5239C45.497 11.266 44.4016 8.28382 42.4128 6.1265C40.4535 4.00125 37.7593 2.83096 34.8273 2.83096C32.6792 2.83096 30.707 3.51381 28.9655 4.86034C27.4136 6.06087 26.3326 7.57848 25.6988 8.64037C25.3728 9.18643 24.7991 9.51237 24.1638 9.51237C23.5285 9.51237 22.9548 9.18643 22.6289 8.64037C21.9954 7.57848 20.9144 6.06087 19.3621 4.86034C17.6207 3.51381 15.6484 2.83096 13.5007 2.83096Z" fill="white"/>
</svg>
