<svg width="21" height="18" viewBox="0 0 21 18" fill="none" xmlns="http://www.w3.org/2000/svg">
<path fill-rule="evenodd" clip-rule="evenodd" d="M19.6707 3.10645H1.03531C0.463519 3.10645 5.57644e-06 3.56996 5.57644e-06 4.14175V16.5654C-0.000641487 16.7829 0.0681198 16.995 0.196368 17.1707C0.390746 17.4404 0.702846 17.6004 1.03531 17.6007H19.6707C20.0027 17.6005 20.3144 17.4411 20.509 17.1721C20.6375 16.9959 20.7066 16.7834 20.7061 16.5654V4.14175C20.7061 3.56996 20.2425 3.10645 19.6707 3.10645ZM0.690206 16.3676V5.37583L7.80446 10.8712L0.690206 16.3676ZM1.11641 16.9105L8.3687 11.3074L9.72046 12.351C10.0931 12.6386 10.6129 12.6386 10.9856 12.351L12.3374 11.3074L19.5897 16.9105H1.11641ZM20.0159 16.3676L12.9016 10.8712L20.0159 5.37583V16.3676ZM20.0159 4.50376L10.5639 11.8047C10.4397 11.9006 10.2664 11.9006 10.1422 11.8047L0.690206 4.50376V4.14175C0.690206 3.95117 0.844725 3.79665 1.03531 3.79665H19.6708C19.8613 3.79665 20.0159 3.95117 20.0159 4.14175V4.50376Z" fill="white"/>
</svg>
