<svg width="198" height="198" viewBox="0 0 198 198" fill="none" xmlns="http://www.w3.org/2000/svg">
<mask id="mask0_0_14969" style="mask-type:alpha" maskUnits="userSpaceOnUse" x="0" y="0" width="198" height="198">
<rect width="198" height="198" fill="white"/>
</mask>
<g mask="url(#mask0_0_14969)">
<path fill-rule="evenodd" clip-rule="evenodd" d="M98.9999 7.91992C48.7447 7.91992 7.91992 48.7447 7.91992 98.9999C7.91992 149.255 48.7447 190.08 98.9999 190.08C149.255 190.08 190.08 149.255 190.08 98.9999C190.08 48.7447 149.255 7.91992 98.9999 7.91992ZM98.9999 15.8399C144.975 15.8399 182.16 53.025 182.16 98.9999C182.16 144.975 144.975 182.16 98.9999 182.16C53.025 182.16 15.8399 144.975 15.8399 98.9999C15.8399 53.025 53.025 15.8399 98.9999 15.8399Z" fill="#5B5B5B"/>
</g>
</svg>
