<svg width="99" height="99" viewBox="0 0 99 99" fill="none" xmlns="http://www.w3.org/2000/svg">
<mask id="mask0_0_15473" style="mask-type:alpha" maskUnits="userSpaceOnUse" x="0" y="0" width="99" height="99">
<rect width="99" height="99" fill="white"/>
</mask>
<g mask="url(#mask0_0_15473)">
<path fill-rule="evenodd" clip-rule="evenodd" d="M49.5 12.375C37.5721 12.375 27.8438 22.1034 27.8438 34.0312C27.8438 41.4393 31.6143 48.0135 37.3184 51.917C26.2485 56.6301 18.5625 67.6274 18.5625 80.4375H24.75C24.75 66.6244 35.6869 55.6875 49.5 55.6875C63.3131 55.6875 74.25 66.6244 74.25 80.4375H80.4375C80.4375 67.6274 72.7515 56.6301 61.6816 51.917C67.3857 48.0135 71.1562 41.4393 71.1562 34.0312C71.1562 22.1034 61.4279 12.375 49.5 12.375ZM49.5 18.5625C58.0803 18.5625 64.9688 25.4509 64.9688 34.0312C64.9688 42.6116 58.0803 49.5 49.5 49.5C40.9197 49.5 34.0312 42.6116 34.0312 34.0312C34.0312 25.4509 40.9197 18.5625 49.5 18.5625Z" fill="#5B5B5B"/>
</g>
</svg>
