<?xml version="1.0" encoding="iso-8859-1"?>
<!-- Generator: Adobe Illustrator 19.0.0, SVG Export Plug-In . SVG Version: 6.00 Build 0)  -->
<svg version="1.1" id="Capa_1" xmlns="http://www.w3.org/2000/svg" xmlns:xlink="http://www.w3.org/1999/xlink" x="0px" y="0px"
	 viewBox="0 0 470.08 470.08" fill="currentColor" style="enable-background:new 0 0 470.08 470.08;" xml:space="preserve">
<g>
	<g>
		<path d="M235.04,131.04c-57.438,0-104,46.562-104,104s46.562,104,104,104c57.41-0.066,103.934-46.59,104-104
			C339.04,177.602,292.477,131.04,235.04,131.04z M235.04,323.04c-48.601,0-88-39.399-88-88c0-48.601,39.399-88,88-88
			c48.577,0.057,87.943,39.423,88,88C323.04,283.641,283.641,323.04,235.04,323.04z"/>
	</g>
</g>
<g>
	<g>
		<path d="M469.969,281.564c-0.728-4.358-4.851-7.301-9.209-6.573c-0.571,0.057-1.146,0.073-1.72,0.048c-22.091,0-40-17.909-40-40
			s17.909-40,40-40c0.56-0.027,1.122-0.011,1.68,0.048c0.975,0.163,1.971,0.144,2.939-0.057c4.327-0.895,7.108-5.129,6.213-9.455
			c-6.036-29.106-17.526-56.807-33.864-81.64c-1.451-2.216-3.904-3.569-6.552-3.616c-2.633,0.012-5.107,1.266-6.672,3.384
			c-0.34,0.435-0.717,0.839-1.128,1.208c-0.687,0.74-1.401,1.455-2.142,2.141c-16.203,15.016-41.512,14.054-56.528-2.149
			c-15.016-16.203-14.054-41.512,2.149-56.528c0.358-0.403,0.752-0.772,1.176-1.104c0.83-0.582,1.541-1.316,2.097-2.164
			c2.422-3.695,1.391-8.654-2.305-11.076c-24.821-16.334-52.508-27.824-81.6-33.864c-0.968-0.2-1.964-0.22-2.939-0.057
			c-4.358,0.728-7.301,4.851-6.573,9.209c0.061,0.571,0.077,1.146,0.048,1.72c0,22.091-17.909,40-40,40c-22.091,0-40-17.909-40-40
			c-0.029-0.574-0.013-1.149,0.048-1.72c0.163-0.975,0.144-1.971-0.057-2.939c-0.895-4.327-5.129-7.108-9.455-6.213
			c-29.109,6.048-56.81,17.552-81.64,33.904c-0.847,0.555-1.582,1.267-2.164,2.097c-2.537,3.617-1.662,8.606,1.956,11.143
			c0.427,0.334,0.823,0.707,1.184,1.112c0.74,0.687,1.455,1.401,2.141,2.142c15.016,16.203,14.054,41.512-2.149,56.528
			s-41.512,14.054-56.528-2.149c-0.408-0.366-0.783-0.768-1.12-1.2c-1.503-2.191-4.017-3.466-6.672-3.384
			c-2.648,0.047-5.101,1.401-6.552,3.616c-16.334,24.821-27.824,52.508-33.864,81.6c-0.2,0.968-0.22,1.964-0.057,2.939
			c0.728,4.358,4.851,7.301,9.209,6.573c0.571-0.06,1.146-0.077,1.72-0.048c22.091,0,40,17.909,40,40s-17.909,40-40,40
			c-0.56,0.036-1.121,0.034-1.68-0.008c-0.975-0.163-1.971-0.144-2.939,0.057c-4.327,0.895-7.108,5.129-6.213,9.455
			c6.04,29.092,17.53,56.779,33.864,81.6c1.451,2.216,3.904,3.569,6.552,3.616c2.667,0.137,5.207-1.151,6.672-3.384
			c0.34-0.435,0.717-0.839,1.128-1.208c0.687-0.74,1.401-1.454,2.141-2.141c16.203-15.016,41.511-14.054,56.528,2.149
			c15.016,16.203,14.054,41.511-2.149,56.528c-0.366,0.408-0.768,0.783-1.2,1.12c-0.82,0.579-1.523,1.308-2.074,2.148
			c-2.422,3.695-1.39,8.654,2.306,11.076c24.821,16.333,52.508,27.824,81.6,33.864c0.968,0.2,1.964,0.22,2.939,0.057
			c4.358-0.728,7.301-4.851,6.573-9.209c-0.061-0.571-0.077-1.146-0.048-1.72c0-22.091,17.909-40,40-40c22.091,0,40,17.909,40,40
			c0.029,0.574,0.013,1.149-0.048,1.72c-0.073,0.435-0.11,0.876-0.11,1.318c-0.001,4.418,3.579,8.001,7.998,8.002
			c0.56-0.011,1.118-0.081,1.664-0.208c29.092-6.04,56.779-17.531,81.6-33.864c0.84-0.55,1.568-1.254,2.148-2.074
			c2.55-3.608,1.692-8.6-1.916-11.15c-0.435-0.34-0.839-0.717-1.208-1.128c-0.74-0.687-1.455-1.401-2.141-2.142
			c-15.016-16.203-14.054-41.512,2.149-56.528c16.203-15.016,41.512-14.054,56.528,2.149c0.408,0.366,0.783,0.768,1.12,1.2
			c0.579,0.82,1.308,1.523,2.148,2.074c3.695,2.422,8.654,1.39,11.076-2.306c16.334-24.821,27.824-52.508,33.864-81.6
			C470.112,283.536,470.131,282.539,469.969,281.564z M427.776,349.208c-20.194-15.652-48.421-15.652-68.615,0
			c-24.444,18.947-28.901,54.123-9.953,78.568c-18.251,10.905-37.991,19.097-58.6,24.32c-3.532-28.009-27.337-49.024-55.568-49.056
			c-28.231,0.032-52.036,21.047-55.568,49.056c-20.608-5.226-40.347-13.419-58.6-24.32c15.652-20.194,15.652-48.421,0-68.615
			c-18.947-24.444-54.124-28.901-78.568-9.953c-10.905-18.251-19.097-37.991-24.32-58.6c25.424-3.176,45.449-23.202,48.625-48.626
			c3.834-30.689-17.936-58.676-48.625-62.51c5.226-20.608,13.419-40.347,24.32-58.6c20.194,15.652,48.421,15.652,68.615,0
			c24.445-18.947,28.901-54.123,9.953-78.568c18.251-10.905,37.991-19.097,58.6-24.32c3.176,25.424,23.202,45.449,48.626,48.626
			c30.689,3.834,58.676-17.936,62.51-48.626c20.608,5.226,40.347,13.419,58.6,24.32c-15.652,20.194-15.652,48.421,0,68.615
			c18.947,24.445,54.123,28.901,78.568,9.953c10.905,18.251,19.097,37.991,24.32,58.6c-25.424,3.176-45.449,23.202-48.626,48.626
			c-3.834,30.689,17.936,58.676,48.626,62.51C446.869,311.215,438.677,330.955,427.776,349.208z"/>
	</g>
</g>
<g>
</g>
<g>
</g>
<g>
</g>
<g>
</g>
<g>
</g>
<g>
</g>
<g>
</g>
<g>
</g>
<g>
</g>
<g>
</g>
<g>
</g>
<g>
</g>
<g>
</g>
<g>
</g>
<g>
</g>
</svg>
