<svg width="39" height="38" viewBox="0 0 39 38" fill="none" xmlns="http://www.w3.org/2000/svg">
<path fill-rule="evenodd" clip-rule="evenodd" d="M38.3568 16.7002C38.9235 16.1335 39.1259 15.4049 38.9235 14.7977C38.7211 14.1501 38.1545 13.7048 37.3449 13.5834L27.8327 11.9643C27.1446 11.8429 26.1731 11.1547 25.8493 10.5476L21.3563 1.96638C20.992 1.23778 20.3849 0.833008 19.7372 0.833008C19.0896 0.833008 18.4824 1.23778 18.1181 1.96638L13.6252 10.5071C13.2609 11.1547 12.3299 11.8429 11.6418 11.9643L2.12957 13.5834C1.32002 13.7048 0.753339 14.1501 0.550952 14.7977C0.348565 15.4049 0.550952 16.1335 1.11764 16.7002L7.83688 23.6218C8.32261 24.148 8.68691 25.2409 8.60596 25.929L7.22972 35.4817C7.10829 36.3317 7.39163 36.8579 7.6345 37.1412C8.1607 37.7484 9.01073 37.8698 9.90123 37.4246L18.5229 33.134C19.1301 32.8506 20.3444 32.8506 20.9516 33.134L29.6137 37.3841C29.978 37.546 30.3018 37.627 30.6257 37.627C31.1114 37.627 31.5566 37.4246 31.84 37.1008C32.0828 36.8174 32.3662 36.2912 32.2448 35.4412L30.8685 25.8885C30.7471 25.2004 31.1114 24.067 31.6376 23.5813L38.3568 16.7002ZM30.3419 22.3676C29.4514 23.2985 28.9252 24.9176 29.0871 26.2129L30.4633 35.7656C30.4633 35.8061 30.4633 35.8061 30.4633 35.8465C30.4229 35.8465 30.4229 35.8061 30.3824 35.8061L21.7607 31.5155C21.194 31.2321 20.5059 31.1107 19.7368 31.1107C19.0083 31.1107 18.2797 31.2726 17.713 31.5155L9.05081 35.7656C9.01034 35.7656 9.01034 35.8061 8.96986 35.8061C8.96986 35.7656 8.96986 35.7656 8.96986 35.7251L10.3461 26.1724C10.5485 24.9176 9.98179 23.2581 9.09129 22.3271L2.41252 15.4459C2.37204 15.4054 2.37204 15.4054 2.37204 15.365C2.41252 15.365 2.41252 15.365 2.453 15.365L11.9652 13.7459C13.22 13.5435 14.6367 12.4911 15.2439 11.3577L19.7368 2.81696C19.7368 2.77649 19.7773 2.77649 19.7773 2.73601C19.7773 2.77649 19.8178 2.77649 19.8178 2.81696L24.3108 11.3577C24.9179 12.4911 26.2942 13.503 27.5895 13.7459L37.1016 15.365C37.1421 15.365 37.1421 15.365 37.1826 15.365C37.1016 15.4054 37.1016 15.4054 37.0612 15.4459L30.3419 22.3676Z" fill="white"/>
</svg>
