<svg width="23" height="21" viewBox="0 0 23 21" fill="none" xmlns="http://www.w3.org/2000/svg">
<path fill-rule="evenodd" clip-rule="evenodd" d="M5.75537 15.1299C5.67948 15.2944 5.69212 15.4905 5.78699 15.6422C7.5579 18.4883 10.6759 20.2213 14.0343 20.2213C17.3927 20.2213 20.5045 18.4883 22.2817 15.6422C22.3765 15.4841 22.3892 15.2944 22.3133 15.1299C21.2761 12.891 19.2332 11.2846 16.8172 10.8102C18.898 9.56426 19.891 7.07867 19.2395 4.73855C18.5881 2.39843 16.463 0.785645 14.0407 0.785645C11.6183 0.785645 9.48691 2.40475 8.8418 4.73855C8.19669 7.07867 9.18333 9.55793 11.2641 10.8102C8.83548 11.2846 6.78629 12.891 5.75537 15.1299ZM9.7146 6.18692C9.7146 3.80253 11.6499 1.86719 14.0343 1.86719C16.4187 1.86719 18.3541 3.80253 18.3541 6.18692C18.3541 8.57132 16.4187 10.5067 14.0343 10.5067C11.6499 10.5067 9.72092 8.57132 9.7146 6.18692ZM14.028 11.5884C17.5066 11.5884 19.9163 12.847 21.1938 15.3262C19.5874 17.717 16.8994 19.1463 14.028 19.1463C11.1566 19.1463 8.46232 17.7106 6.86218 15.3262C8.13976 12.8407 10.5495 11.5884 14.028 11.5884Z" fill="#47AAC4"/>
<path fill-rule="evenodd" clip-rule="evenodd" d="M0.537595 11.0444H2.6943V13.2011C2.6943 13.4984 2.93464 13.7387 3.2319 13.7387C3.52915 13.7387 3.76949 13.4984 3.76949 13.2011V11.0444H5.9262C6.22346 11.0444 6.46379 10.8041 6.46379 10.5068C6.46379 10.2095 6.22346 9.9692 5.9262 9.9692H3.77582V7.8125C3.77582 7.51524 3.53548 7.2749 3.23822 7.2749C2.94096 7.2749 2.70063 7.51524 2.70063 7.8125V9.9692H0.537595C0.240337 9.9692 0 10.2095 0 10.5068C0 10.8041 0.240336 11.0444 0.537595 11.0444Z" fill="#47AAC4"/>
</svg>
