<svg width="33" height="33" viewBox="0 0 33 33" fill="none" xmlns="http://www.w3.org/2000/svg">
<g opacity="0.4">
<path fill-rule="evenodd" clip-rule="evenodd" d="M11.3437 24.5678C11.1654 24.5678 10.9872 24.5215 10.8281 24.4299C10.5088 24.2456 10.3125 23.9052 10.3125 23.5366V9.28148C10.3125 8.91287 10.5089 8.5735 10.8271 8.38923C11.1463 8.20495 11.5391 8.20192 11.8584 8.38824L24.2333 15.5123C24.5526 15.6955 24.75 16.037 24.75 16.4056C24.75 16.7742 24.5536 17.1145 24.2333 17.2989L11.8584 24.43C11.6992 24.5216 11.5209 24.5678 11.3437 24.5678ZM12.3749 11.065V21.7521L21.6522 16.4055C21.6521 16.4055 12.3749 11.065 12.3749 11.065V11.065Z" fill="white"/>
<path fill-rule="evenodd" clip-rule="evenodd" d="M16.5 33.0001C7.40203 33.0001 0 25.5981 0 16.5002C0 7.4022 7.40203 0.000244141 16.5 0.000244141C25.598 0.000244141 33 7.40226 33 16.5002C33 25.5982 25.5979 33.0001 16.5 33.0001ZM16.5 2.06274C8.53908 2.06274 2.0625 8.53924 2.0625 16.5002C2.0625 24.4612 8.53901 30.9377 16.5 30.9377C24.461 30.9377 30.9374 24.4611 30.9374 16.5002C30.9374 8.53931 24.4609 2.06274 16.5 2.06274Z" fill="white"/>
</g>
</svg>
