<?xml version="1.0" encoding="iso-8859-1"?>
<!-- Generator: Adobe Illustrator 19.0.0, SVG Export Plug-In . SVG Version: 6.00 Build 0)  -->
<svg version="1.1" id="Layer_1" xmlns="http://www.w3.org/2000/svg" xmlns:xlink="http://www.w3.org/1999/xlink" x="0px" y="0px"
	 viewBox="0 0 512 512" fill="white" style="enable-background:new 0 0 512 512;" xml:space="preserve">
<g>
	<g>
		<g>
			<path d="M334.604,100.469c-5.458-2.177-11.667,0.51-13.854,5.979c-2.167,5.479,0.51,11.677,5.979,13.854
				C400.396,149.542,448,219.563,448,298.667c0,105.865-86.135,192-192,192s-192-86.135-192-192
				c0-79.104,47.604-149.125,121.271-178.365c5.469-2.177,8.146-8.375,5.979-13.854c-2.188-5.479-8.396-8.156-13.854-5.979
				C95.552,132.969,42.667,210.76,42.667,298.667C42.667,416.302,138.365,512,256,512s213.333-95.698,213.333-213.333
				C469.333,210.76,416.448,132.969,334.604,100.469z"/>
			<path d="M256,266.667c5.896,0,10.667-4.771,10.667-10.667V10.667C266.667,4.771,261.896,0,256,0s-10.667,4.771-10.667,10.667V256
				C245.333,261.896,250.104,266.667,256,266.667z"/>
		</g>
	</g>
</g>
<g>
</g>
<g>
</g>
<g>
</g>
<g>
</g>
<g>
</g>
<g>
</g>
<g>
</g>
<g>
</g>
<g>
</g>
<g>
</g>
<g>
</g>
<g>
</g>
<g>
</g>
<g>
</g>
<g>
</g>
</svg>
