<svg width="31" height="27" viewBox="0 0 31 27" fill="none" xmlns="http://www.w3.org/2000/svg">
<path fill-rule="evenodd" clip-rule="evenodd" d="M15.6446 26.6904L29.9822 5.90092C30.1334 5.68084 30.1492 5.39552 30.0266 5.16039C29.9026 4.92453 29.6589 4.77686 29.3922 4.77686L0.716965 4.77686C0.450283 4.77686 0.205828 4.92453 0.0818062 5.16039C0.0273247 5.26505 8.39233e-05 5.37975 8.39233e-05 5.49374C8.39233e-05 5.63639 0.0430965 5.77834 0.12697 5.90092L14.4646 26.6904C14.5986 26.8847 14.8187 27.0001 15.0546 27.0001C15.2904 27.0001 15.5105 26.884 15.6446 26.6904ZM2.08135 6.2106L28.026 6.2106L15.0533 25.0208L2.08135 6.2106Z" fill="white"/>
</svg>
