<?xml version="1.0" encoding="iso-8859-1"?>
<!-- Generator: Adobe Illustrator 19.0.0, SVG Export Plug-In . SVG Version: 6.00 Build 0)  -->
<svg version="1.1" id="Capa_1" xmlns="http://www.w3.org/2000/svg" xmlns:xlink="http://www.w3.org/1999/xlink" x="0px" y="0px"
	 viewBox="0 0 480 480" fill="white" style="enable-background:new 0 0 480 480;" xml:space="preserve">
<g>
	<g>
		<path d="M240,0C107.452,0,0,107.452,0,240s107.452,240,240,240s240-107.452,240-240C479.85,107.514,372.486,0.15,240,0z M240,464
			C116.288,464,16,363.712,16,240S116.288,16,240,16s224,100.288,224,224C463.859,363.653,363.653,463.859,240,464z"/>
	</g>
</g>
<g>
	<g>
		<path d="M336,232h-88v-88c0-4.418-3.582-8-8-8s-8,3.582-8,8v88h-88c-4.418,0-8,3.582-8,8s3.582,8,8,8h88v88c0,4.418,3.582,8,8,8
			s8-3.582,8-8v-88h88c4.418,0,8-3.582,8-8S340.418,232,336,232z"/>
	</g>
</g>
<g>
</g>
<g>
</g>
<g>
</g>
<g>
</g>
<g>
</g>
<g>
</g>
<g>
</g>
<g>
</g>
<g>
</g>
<g>
</g>
<g>
</g>
<g>
</g>
<g>
</g>
<g>
</g>
<g>
</g>
</svg>
