<svg width="318" height="27" viewBox="0 0 318 27" fill="none" xmlns="http://www.w3.org/2000/svg">
<path d="M0.648 26L11.52 0.439999H13.032L23.904 26H21.924L18.36 17.576H6.156L2.592 26H0.648ZM12.276 2.672L6.588 16.064H17.856L12.276 2.672ZM55.2347 26.18C53.4587 26.18 51.8387 25.808 50.3747 25.064C48.9107 24.32 47.6507 23.348 46.5947 22.148C45.5387 20.948 44.7227 19.568 44.1467 18.008C43.5707 16.448 43.2827 14.852 43.2827 13.22C43.2827 11.516 43.5827 9.884 44.1827 8.324C44.8067 6.764 45.6467 5.384 46.7027 4.184C47.7827 2.984 49.0547 2.036 50.5187 1.34C51.9827 0.619998 53.5667 0.259999 55.2707 0.259999C57.0467 0.259999 58.6667 0.643999 60.1307 1.412C61.5947 2.156 62.8427 3.14 63.8747 4.364C64.9307 5.588 65.7467 6.98 66.3227 8.54C66.8987 10.076 67.1867 11.636 67.1867 13.22C67.1867 14.948 66.8747 16.592 66.2507 18.152C65.6507 19.712 64.8107 21.092 63.7307 22.292C62.6747 23.468 61.4147 24.416 59.9507 25.136C58.5107 25.832 56.9387 26.18 55.2347 26.18ZM45.1187 13.22C45.1187 14.684 45.3587 16.1 45.8387 17.468C46.3427 18.812 47.0387 20.012 47.9267 21.068C48.8387 22.1 49.9067 22.928 51.1307 23.552C52.3787 24.176 53.7467 24.488 55.2347 24.488C56.7707 24.488 58.1507 24.164 59.3747 23.516C60.6227 22.868 61.6907 22.016 62.5787 20.96C63.4667 19.88 64.1507 18.668 64.6307 17.324C65.1107 15.98 65.3507 14.612 65.3507 13.22C65.3507 11.756 65.0987 10.352 64.5947 9.008C64.0907 7.64 63.3827 6.44 62.4707 5.408C61.5827 4.352 60.5147 3.512 59.2667 2.888C58.0427 2.264 56.6987 1.952 55.2347 1.952C53.6987 1.952 52.3067 2.276 51.0587 2.924C49.8107 3.572 48.7427 4.436 47.8547 5.516C46.9907 6.572 46.3187 7.772 45.8387 9.116C45.3587 10.46 45.1187 11.828 45.1187 13.22ZM92.1263 3.896V26H90.2903V0.439999H91.6943L109.622 22.94V0.475998H111.458V26H109.766L92.1263 3.896ZM135.303 0.439999L145.059 23.696L154.779 0.439999H156.723L145.887 26H144.231L133.395 0.439999H135.303ZM195.666 24.344V26H178.638V0.439999H195.342V2.096H180.474V12.14H193.47V13.724H180.474V24.344H195.666ZM218.786 26V0.439999H229.442C230.522 0.439999 231.518 0.667999 232.43 1.124C233.342 1.58 234.122 2.192 234.77 2.96C235.418 3.704 235.922 4.556 236.282 5.516C236.666 6.452 236.858 7.4 236.858 8.36C236.858 9.296 236.714 10.208 236.426 11.096C236.138 11.96 235.73 12.74 235.202 13.436C234.674 14.132 234.038 14.708 233.294 15.164C232.55 15.62 231.734 15.92 230.846 16.064L237.218 26H235.094L228.902 16.352H220.622V26H218.786ZM220.622 14.66H229.586C230.402 14.66 231.146 14.48 231.818 14.12C232.49 13.76 233.066 13.292 233.546 12.716C234.026 12.116 234.386 11.444 234.626 10.7C234.89 9.932 235.022 9.152 235.022 8.36C235.022 7.544 234.866 6.764 234.554 6.02C234.266 5.252 233.858 4.58 233.33 4.004C232.826 3.428 232.226 2.972 231.53 2.636C230.858 2.276 230.126 2.096 229.334 2.096H220.622V14.66ZM275.351 4.688C273.695 2.84 271.355 1.916 268.331 1.916C265.835 1.916 264.011 2.396 262.859 3.356C261.731 4.292 261.167 5.564 261.167 7.172C261.167 7.988 261.311 8.672 261.599 9.224C261.887 9.776 262.331 10.244 262.931 10.628C263.555 10.988 264.335 11.312 265.271 11.6C266.231 11.864 267.359 12.128 268.655 12.392C270.047 12.68 271.295 13.004 272.399 13.364C273.503 13.7 274.439 14.132 275.207 14.66C275.999 15.188 276.599 15.836 277.007 16.604C277.439 17.372 277.655 18.32 277.655 19.448C277.655 20.576 277.427 21.56 276.971 22.4C276.539 23.24 275.915 23.948 275.099 24.524C274.307 25.076 273.347 25.496 272.219 25.784C271.115 26.072 269.879 26.216 268.511 26.216C264.527 26.216 261.155 24.944 258.395 22.4L259.367 20.924C260.447 22.052 261.767 22.952 263.327 23.624C264.887 24.272 266.639 24.596 268.583 24.596C270.815 24.596 272.555 24.188 273.803 23.372C275.075 22.556 275.711 21.32 275.711 19.664C275.711 18.824 275.543 18.116 275.207 17.54C274.895 16.94 274.403 16.424 273.731 15.992C273.059 15.56 272.219 15.188 271.211 14.876C270.227 14.564 269.063 14.264 267.719 13.976C266.351 13.688 265.139 13.388 264.083 13.076C263.051 12.74 262.175 12.332 261.455 11.852C260.735 11.348 260.195 10.748 259.835 10.052C259.475 9.356 259.295 8.48 259.295 7.424C259.295 6.272 259.511 5.252 259.943 4.364C260.399 3.476 261.023 2.732 261.815 2.132C262.607 1.508 263.555 1.04 264.659 0.727999C265.763 0.415999 266.987 0.259999 268.331 0.259999C269.987 0.259999 271.463 0.511999 272.759 1.016C274.055 1.496 275.231 2.24 276.287 3.248L275.351 4.688ZM317.447 24.344V26H300.419V0.439999H317.123V2.096H302.255V12.14H315.251V13.724H302.255V24.344H317.447Z" fill="white"/>
</svg>
