<svg width="34" height="34" viewBox="0 0 34 34" fill="none" xmlns="http://www.w3.org/2000/svg">
<path fill-rule="evenodd" clip-rule="evenodd" d="M16.735 0.000244141C7.50746 0.000244141 0 7.50771 0 16.7352C0 25.9627 7.50746 33.4702 16.735 33.4702C25.9625 33.4702 33.47 25.9627 33.47 16.7352C33.47 7.50771 25.9625 0.000244141 16.735 0.000244141ZM2.09185 16.7352C2.09185 8.6609 8.66066 2.09209 16.735 2.09209C24.8093 2.09209 31.3781 8.6609 31.3781 16.7352C31.3781 18.478 31.0562 20.1429 30.495 21.6946L21.6583 12.858C21.2497 12.4494 20.5879 12.4494 20.1793 12.858L6.17941 26.8578C3.65417 24.2256 2.09192 20.6624 2.09185 16.7352L2.09185 16.7352ZM16.735 31.3784C13.3404 31.3784 10.2202 30.207 7.73406 28.2611L20.9187 15.0764L29.5868 23.7445C27.0984 28.2889 22.2714 31.3784 16.735 31.3784Z" fill="white"/>
<path fill-rule="evenodd" clip-rule="evenodd" d="M10.4592 16.7352C12.7666 16.7352 14.6429 14.8589 14.6429 12.5514C14.6429 10.244 12.7666 8.36768 10.4592 8.36768C8.15174 8.36768 6.27539 10.244 6.27539 12.5514C6.27539 14.8589 8.15174 16.7352 10.4592 16.7352V16.7352ZM10.4592 10.4596C11.6123 10.4596 12.551 11.3982 12.551 12.5514C12.551 13.7046 11.6123 14.6433 10.4592 14.6433C9.30596 14.6433 8.36731 13.7046 8.36731 12.5514C8.36731 11.3982 9.30596 10.4596 10.4592 10.4596Z" fill="white"/>
</svg>
