<svg width="43" height="40" viewBox="0 0 43 40" fill="none" xmlns="http://www.w3.org/2000/svg">
<path fill-rule="evenodd" clip-rule="evenodd" d="M36.8908 0.82373H6.68002C3.35465 0.82373 0.649414 3.52906 0.649414 6.85435V27.2441C0.649414 30.5694 3.35465 33.2747 6.68002 33.2747H9.04651L9.09282 38.5986C9.09695 39.0892 9.37874 39.5352 9.82012 39.7497C9.99952 39.8368 10.1926 39.8797 10.3848 39.8797C10.6655 39.8797 10.944 39.7884 11.1746 39.6104L19.3833 33.2747H36.8908C40.2161 33.2747 42.9214 30.5694 42.9214 27.2441V6.85435C42.9214 3.52906 40.2161 0.82373 36.8908 0.82373ZM40.3377 27.2443C40.3377 29.1444 38.7918 30.6903 36.8916 30.6903H18.9435C18.6579 30.6903 18.3802 30.785 18.154 30.9596L11.6554 35.9753L11.6206 31.9714C11.6145 31.2621 11.0377 30.6903 10.3284 30.6903H6.68087C4.7807 30.6903 3.2348 29.1444 3.2348 27.2443V6.85445C3.2348 4.95427 4.7807 3.40837 6.68087 3.40837H36.8917C38.7919 3.40837 40.3378 4.95427 40.3378 6.85445V27.2443H40.3377Z" fill="white"/>
</svg>
