<?xml version="1.0" encoding="iso-8859-1"?>
<!-- Generator: Adobe Illustrator 19.0.0, SVG Export Plug-In . SVG Version: 6.00 Build 0)  -->
<svg version="1.1" id="Capa_1" xmlns="http://www.w3.org/2000/svg" xmlns:xlink="http://www.w3.org/1999/xlink" x="0px" y="0px"
	 viewBox="0 0 480.009 480.009" fill="white" style="enable-background:new 0 0 480.009 480.009;" xml:space="preserve">
<g>
	<g>
		<g>
			<path d="M479.164,468.251l-232-464c-0.709-1.189-1.702-2.182-2.891-2.891c-3.954-2.358-9.071-1.063-11.429,2.891l-232,464
				c-0.555,1.112-0.844,2.337-0.844,3.58c0.002,4.418,3.585,7.998,8.004,7.996h464c1.243,0.001,2.468-0.288,3.58-0.844
				C479.536,477.008,481.139,472.203,479.164,468.251z M20.948,463.827L240.004,25.715L459.06,463.827H20.948z"/>
			<path d="M232.004,87.827v240c0,4.418,3.582,8,8,8s8-3.582,8-8v-240c0-4.418-3.582-8-8-8S232.004,83.409,232.004,87.827z"/>
			<path d="M200.004,391.827c0,22.091,17.909,40,40,40c22.08-0.026,39.974-17.92,40-40c0-22.091-17.909-40-40-40
				C217.912,351.827,200.004,369.735,200.004,391.827z M264.004,391.827c0,13.255-10.745,24-24,24s-24-10.745-24-24s10.745-24,24-24
				S264.004,378.572,264.004,391.827z"/>
		</g>
	</g>
</g>
<g>
</g>
<g>
</g>
<g>
</g>
<g>
</g>
<g>
</g>
<g>
</g>
<g>
</g>
<g>
</g>
<g>
</g>
<g>
</g>
<g>
</g>
<g>
</g>
<g>
</g>
<g>
</g>
<g>
</g>
</svg>
